<?xml version="1.0" encoding="utf-8"?>
<!-- Generator: Adobe Illustrator 22.1.0, SVG Export Plug-In . SVG Version: 6.00 Build 0)  -->
<svg version="1.1" id="レイヤー_1" xmlns="http://www.w3.org/2000/svg" xmlns:xlink="http://www.w3.org/1999/xlink" x="0px"
	 y="0px" viewBox="0 0 151 89.1" style="enable-background:new 0 0 151 89.1;" xml:space="preserve">
<g>
	<path d="M40.8,16.9c0,8.1-3.2,13.3-9.6,15.6l12.7,18H30.2L19,34.4h-7.8v16.1H0V0.2h19.1c7.8,0,13.4,1.3,16.7,4
		C39.2,6.8,40.8,11,40.8,16.9z M27.3,22.8c1.4-1.2,2.1-3.2,2.1-5.9c0-2.7-0.7-4.6-2.2-5.6c-1.4-1-4-1.5-7.6-1.5h-8.4v14.9h8.2
		C23.3,24.7,25.9,24.1,27.3,22.8z"/>
	<path d="M75.5,40.5c5.5,0,10-2.2,13.5-6.6l7.2,7.4c-5.7,6.4-12.4,9.6-20.2,9.6c-7.8,0-14.1-2.4-19.2-7.3c-5-4.9-7.5-11.1-7.5-18.5
		c0-7.5,2.6-13.7,7.7-18.7C62.1,1.5,68.4-1,75.7-1C84-1,90.9,2.1,96.5,8.4l-7,7.9c-3.6-4.4-8-6.6-13.2-6.6c-4.2,0-7.8,1.4-10.8,4.1
		c-3,2.8-4.5,6.5-4.5,11.2c0,4.7,1.4,8.4,4.2,11.3C68,39.1,71.4,40.5,75.5,40.5z"/>
	<path d="M118.7,37.5c1.9,2.3,4.4,3.5,7.6,3.5c3.2,0,5.7-1.2,7.5-3.5c1.8-2.3,2.8-5.5,2.8-9.5V0.2h11.2v28.2c0,7.3-2,12.9-6,16.8
		c-4,3.9-9.2,5.9-15.5,5.9s-11.5-2-15.5-5.9c-4.1-3.9-6.1-9.5-6.1-16.8V0.2h11.2v27.8C115.9,32,116.9,35.2,118.7,37.5z"/>
</g>
<g>
	<path d="M19.8,67.2c2.4,2.2,3.6,5.3,3.6,9.2c0,3.9-1.2,7-3.5,9.3c-2.4,2.3-6,3.4-10.8,3.4H0.8V64h8.6C13.9,64,17.4,65,19.8,67.2z
		 M19.2,76.5c0-5.8-3.3-8.6-9.9-8.6H5v17.2h4.7c3,0,5.4-0.7,7-2.2S19.2,79.3,19.2,76.5z"/>
	<path d="M48.6,64v4H35.1v6.7h12.1v3.8H35.1v6.7H49v4H30.9V64H48.6z"/>
	<path d="M64,67.3c-1.2,0-2.2,0.3-3,0.8s-1.2,1.3-1.2,2.3c0,1,0.4,1.8,1.2,2.3s2.5,1.1,5.1,1.7c2.6,0.6,4.5,1.5,5.8,2.6
		c1.3,1.1,2,2.8,2,5c0,2.2-0.8,4-2.5,5.3c-1.7,1.4-3.8,2.1-6.5,2.1c-3.9,0-7.4-1.4-10.5-4.1l2.7-3.2c2.5,2.2,5.2,3.3,7.9,3.3
		c1.4,0,2.5-0.3,3.3-0.9c0.8-0.6,1.2-1.4,1.2-2.3c0-1-0.4-1.7-1.1-2.3s-2.1-1-3.9-1.5c-1.8-0.4-3.3-0.9-4.2-1.2s-1.8-0.9-2.6-1.5
		c-1.5-1.1-2.2-2.9-2.2-5.2c0-2.3,0.8-4.1,2.5-5.4c1.7-1.3,3.8-1.9,6.3-1.9c1.6,0,3.2,0.3,4.8,0.8c1.6,0.5,3,1.3,4.1,2.2l-2.3,3.2
		c-0.7-0.7-1.8-1.2-3-1.7C66.5,67.5,65.3,67.3,64,67.3z"/>
	<path d="M81.1,64h4.2v25.2h-4.2V64z"/>
	<path d="M111.7,76.9h4.2v8.6c-2.4,2.6-5.8,3.9-10.2,3.9c-3.7,0-6.8-1.2-9.3-3.7s-3.8-5.5-3.8-9.3s1.3-6.9,3.8-9.4
		c2.6-2.5,5.6-3.7,9.3-3.7c3.6,0,6.6,1.1,9,3.2l-2.3,3.2c-1-0.8-2-1.4-3-1.7c-1-0.3-2.2-0.5-3.5-0.5c-2.5,0-4.7,0.8-6.4,2.5
		c-1.7,1.6-2.6,3.8-2.6,6.5s0.8,4.8,2.5,6.4c1.7,1.6,3.7,2.4,6.1,2.4s4.4-0.5,6-1.5V76.9z"/>
	<path d="M142.4,64h4.2v25.2H142l-14.3-18.4v18.4h-4.2V64h4.2l14.6,18.8V64z"/>
</g>
</svg>
